# xmcd
#
# Track frame offsets:
#	150
#	18950
#	35781
#	48240
#	59367
#	79378
#	93532
#	105009
#	129677
#	143838
#	157033
#	175746
#	185347
#	198426
#	217479
#	232497
#	248214
#	266364
#
# Disc length: 3677 seconds
# Revision: 0
# Processed by: cddbd v1.5.2PL0 Copyright (c) Steve Scherf et al.
# Submitted via: dBpowerAMP V12.0
#
DISCID=090e5b12
DTITLE=Th Blues Preachers - Dry Long So
DYEAR=2008
DGENRE=Blues
TTITLE0=Pay Day
TTITLE1=Big Road Blues
TTITLE2=Beulah Land
TTITLE3=Creole Belle
TTITLE4=Oh Death
TTITLE5=I Am A Pilgrim
TTITLE6=My Babe
TTITLE7=On Your Bond - Happy Meeting In Glory 
TTITLE8=Bourgeois Blues
TTITLE9=Red Hot
TTITLE10=The Angel Of Death
TTITLE11=John The Revelator
TTITLE12=The Coo Coo
TTITLE13=Hard Time Killing Floor
TTITLE14=Trimmed And Burning
TTITLE15=You've Got To Move
TTITLE16=Goodnight Irene
TTITLE17=Be Kind
EXTD=
EXTT0=
EXTT1=
EXTT2=
EXTT3=
EXTT4=
EXTT5=
EXTT6=
EXTT7=
EXTT8=
EXTT9=
EXTT10=
EXTT11=
EXTT12=
EXTT13=
EXTT14=
EXTT15=
EXTT16=
EXTT17=
PLAYORDER=
